<mxfile host="app.diagrams.net" modified="2024-04-05T08:30:49.324Z" agent="Mozilla/5.0 (Windows NT 10.0; Win64; x64) AppleWebKit/537.36 (KHTML, like Gecko) Chrome/123.0.0.0 Safari/537.36" etag="zavByFKTA-F3A7Fm5i3z" version="24.2.2" type="github">
  <diagram name="Page-1" id="XvvfjQK3vHqN5oyYVeZJ">
    <mxGraphModel dx="1750" dy="942" grid="1" gridSize="10" guides="1" tooltips="1" connect="1" arrows="1" fold="1" page="1" pageScale="1" pageWidth="850" pageHeight="1100" math="0" shadow="0">
      <root>
        <mxCell id="0" />
        <mxCell id="1" parent="0" />
        <mxCell id="xynN1DV7xF-PApxHEvJ0-88" style="edgeStyle=orthogonalEdgeStyle;rounded=0;orthogonalLoop=1;jettySize=auto;html=1;exitX=1;exitY=0.5;exitDx=0;exitDy=0;" parent="1" source="xynN1DV7xF-PApxHEvJ0-1" target="xynN1DV7xF-PApxHEvJ0-4" edge="1">
          <mxGeometry relative="1" as="geometry" />
        </mxCell>
        <mxCell id="xynN1DV7xF-PApxHEvJ0-1" value="використовувати ноутбук" style="rounded=0;whiteSpace=wrap;html=1;" parent="1" vertex="1">
          <mxGeometry x="360" y="260" width="120" height="60" as="geometry" />
        </mxCell>
        <mxCell id="xynN1DV7xF-PApxHEvJ0-84" style="edgeStyle=orthogonalEdgeStyle;rounded=0;orthogonalLoop=1;jettySize=auto;html=1;entryX=0;entryY=0.25;entryDx=0;entryDy=0;" parent="1" source="xynN1DV7xF-PApxHEvJ0-3" target="xynN1DV7xF-PApxHEvJ0-1" edge="1">
          <mxGeometry relative="1" as="geometry" />
        </mxCell>
        <mxCell id="xynN1DV7xF-PApxHEvJ0-3" value="вхідні дані" style="text;html=1;align=center;verticalAlign=middle;whiteSpace=wrap;rounded=0;" parent="1" vertex="1">
          <mxGeometry x="250" y="260" width="60" height="30" as="geometry" />
        </mxCell>
        <mxCell id="xynN1DV7xF-PApxHEvJ0-4" value="вихідні дані" style="text;html=1;align=center;verticalAlign=middle;whiteSpace=wrap;rounded=0;" parent="1" vertex="1">
          <mxGeometry x="560" y="275" width="60" height="30" as="geometry" />
        </mxCell>
        <mxCell id="xynN1DV7xF-PApxHEvJ0-85" style="edgeStyle=orthogonalEdgeStyle;rounded=0;orthogonalLoop=1;jettySize=auto;html=1;" parent="1" target="xynN1DV7xF-PApxHEvJ0-1" edge="1">
          <mxGeometry relative="1" as="geometry">
            <mxPoint x="420" y="210" as="sourcePoint" />
            <Array as="points">
              <mxPoint x="420" y="210" />
            </Array>
          </mxGeometry>
        </mxCell>
        <mxCell id="xynN1DV7xF-PApxHEvJ0-5" value="базова комп&#39;ютерна грамотність" style="text;html=1;align=center;verticalAlign=middle;whiteSpace=wrap;rounded=0;" parent="1" vertex="1">
          <mxGeometry x="375" y="170" width="90" height="30" as="geometry" />
        </mxCell>
        <mxCell id="xynN1DV7xF-PApxHEvJ0-86" style="edgeStyle=orthogonalEdgeStyle;rounded=0;orthogonalLoop=1;jettySize=auto;html=1;entryX=0.25;entryY=1;entryDx=0;entryDy=0;" parent="1" source="xynN1DV7xF-PApxHEvJ0-6" target="xynN1DV7xF-PApxHEvJ0-1" edge="1">
          <mxGeometry relative="1" as="geometry" />
        </mxCell>
        <mxCell id="xynN1DV7xF-PApxHEvJ0-6" value="ноутбук" style="text;html=1;align=center;verticalAlign=middle;whiteSpace=wrap;rounded=0;" parent="1" vertex="1">
          <mxGeometry x="360" y="369.65" width="60" height="30" as="geometry" />
        </mxCell>
        <mxCell id="xynN1DV7xF-PApxHEvJ0-87" style="edgeStyle=orthogonalEdgeStyle;rounded=0;orthogonalLoop=1;jettySize=auto;html=1;entryX=0.75;entryY=1;entryDx=0;entryDy=0;" parent="1" source="xynN1DV7xF-PApxHEvJ0-7" target="xynN1DV7xF-PApxHEvJ0-1" edge="1">
          <mxGeometry relative="1" as="geometry" />
        </mxCell>
        <mxCell id="xynN1DV7xF-PApxHEvJ0-7" value="користувач" style="text;html=1;align=center;verticalAlign=middle;whiteSpace=wrap;rounded=0;" parent="1" vertex="1">
          <mxGeometry x="420" y="369.65" width="60" height="30" as="geometry" />
        </mxCell>
        <mxCell id="xynN1DV7xF-PApxHEvJ0-8" value="&lt;ul&gt;&lt;li style=&quot;text-align: left;&quot;&gt;задача: побудувати діаграму функціонування ноутбука&lt;/li&gt;&lt;li style=&quot;text-align: left;&quot;&gt;точка зору: користувач&lt;/li&gt;&lt;li style=&quot;text-align: left;&quot;&gt;кінцевий результат: вихідні дані роботи з ноутбуком&lt;/li&gt;&lt;/ul&gt;&lt;div&gt;&lt;br&gt;&lt;/div&gt;" style="text;html=1;align=center;verticalAlign=middle;whiteSpace=wrap;rounded=0;" parent="1" vertex="1">
          <mxGeometry y="80" width="290" height="130" as="geometry" />
        </mxCell>
        <mxCell id="xynN1DV7xF-PApxHEvJ0-16" style="edgeStyle=orthogonalEdgeStyle;rounded=0;orthogonalLoop=1;jettySize=auto;html=1;exitX=1;exitY=0.5;exitDx=0;exitDy=0;entryX=0;entryY=0.5;entryDx=0;entryDy=0;" parent="1" source="xynN1DV7xF-PApxHEvJ0-9" target="xynN1DV7xF-PApxHEvJ0-10" edge="1">
          <mxGeometry relative="1" as="geometry" />
        </mxCell>
        <mxCell id="xynN1DV7xF-PApxHEvJ0-9" value="ввімкнути ноутбук" style="rounded=0;whiteSpace=wrap;html=1;" parent="1" vertex="1">
          <mxGeometry x="290" y="540" width="120" height="60" as="geometry" />
        </mxCell>
        <mxCell id="xynN1DV7xF-PApxHEvJ0-47" style="edgeStyle=orthogonalEdgeStyle;rounded=0;orthogonalLoop=1;jettySize=auto;html=1;exitX=1;exitY=0.5;exitDx=0;exitDy=0;entryX=0;entryY=0.5;entryDx=0;entryDy=0;" parent="1" source="xynN1DV7xF-PApxHEvJ0-10" target="xynN1DV7xF-PApxHEvJ0-28" edge="1">
          <mxGeometry relative="1" as="geometry" />
        </mxCell>
        <mxCell id="xynN1DV7xF-PApxHEvJ0-10" value="завантажити BIOS/UEFI" style="rounded=0;whiteSpace=wrap;html=1;" parent="1" vertex="1">
          <mxGeometry x="450" y="640" width="120" height="60" as="geometry" />
        </mxCell>
        <mxCell id="xynN1DV7xF-PApxHEvJ0-17" style="edgeStyle=orthogonalEdgeStyle;rounded=0;orthogonalLoop=1;jettySize=auto;html=1;" parent="1" source="xynN1DV7xF-PApxHEvJ0-11" target="xynN1DV7xF-PApxHEvJ0-9" edge="1">
          <mxGeometry relative="1" as="geometry" />
        </mxCell>
        <mxCell id="xynN1DV7xF-PApxHEvJ0-11" value="натиснути кнопку живлення" style="text;html=1;align=center;verticalAlign=middle;whiteSpace=wrap;rounded=0;" parent="1" vertex="1">
          <mxGeometry x="180" y="555" width="60" height="30" as="geometry" />
        </mxCell>
        <mxCell id="xynN1DV7xF-PApxHEvJ0-18" style="edgeStyle=orthogonalEdgeStyle;rounded=0;orthogonalLoop=1;jettySize=auto;html=1;exitX=0.5;exitY=1;exitDx=0;exitDy=0;" parent="1" source="xynN1DV7xF-PApxHEvJ0-13" target="xynN1DV7xF-PApxHEvJ0-9" edge="1">
          <mxGeometry relative="1" as="geometry" />
        </mxCell>
        <mxCell id="xynN1DV7xF-PApxHEvJ0-13" value="заряджена батарея" style="text;html=1;align=center;verticalAlign=middle;whiteSpace=wrap;rounded=0;" parent="1" vertex="1">
          <mxGeometry x="320" y="460" width="60" height="30" as="geometry" />
        </mxCell>
        <mxCell id="xynN1DV7xF-PApxHEvJ0-19" style="edgeStyle=orthogonalEdgeStyle;rounded=0;orthogonalLoop=1;jettySize=auto;html=1;" parent="1" source="xynN1DV7xF-PApxHEvJ0-14" target="xynN1DV7xF-PApxHEvJ0-9" edge="1">
          <mxGeometry relative="1" as="geometry" />
        </mxCell>
        <mxCell id="xynN1DV7xF-PApxHEvJ0-14" value="ноутбук" style="text;html=1;align=center;verticalAlign=middle;whiteSpace=wrap;rounded=0;" parent="1" vertex="1">
          <mxGeometry x="270" y="670" width="60" height="30" as="geometry" />
        </mxCell>
        <mxCell id="xynN1DV7xF-PApxHEvJ0-23" style="edgeStyle=orthogonalEdgeStyle;rounded=0;orthogonalLoop=1;jettySize=auto;html=1;" parent="1" source="xynN1DV7xF-PApxHEvJ0-20" target="xynN1DV7xF-PApxHEvJ0-10" edge="1">
          <mxGeometry relative="1" as="geometry" />
        </mxCell>
        <mxCell id="xynN1DV7xF-PApxHEvJ0-20" value="BIOS/UEFI" style="text;html=1;align=center;verticalAlign=middle;whiteSpace=wrap;rounded=0;" parent="1" vertex="1">
          <mxGeometry x="440" y="750" width="60" height="30" as="geometry" />
        </mxCell>
        <mxCell id="xynN1DV7xF-PApxHEvJ0-25" style="edgeStyle=orthogonalEdgeStyle;rounded=0;orthogonalLoop=1;jettySize=auto;html=1;" parent="1" source="xynN1DV7xF-PApxHEvJ0-21" target="xynN1DV7xF-PApxHEvJ0-10" edge="1">
          <mxGeometry relative="1" as="geometry" />
        </mxCell>
        <mxCell id="xynN1DV7xF-PApxHEvJ0-21" value="ROM" style="text;html=1;align=center;verticalAlign=middle;whiteSpace=wrap;rounded=0;" parent="1" vertex="1">
          <mxGeometry x="510" y="750" width="60" height="30" as="geometry" />
        </mxCell>
        <mxCell id="xynN1DV7xF-PApxHEvJ0-24" style="edgeStyle=orthogonalEdgeStyle;rounded=0;orthogonalLoop=1;jettySize=auto;html=1;exitX=0.5;exitY=0;exitDx=0;exitDy=0;" parent="1" source="xynN1DV7xF-PApxHEvJ0-22" target="xynN1DV7xF-PApxHEvJ0-10" edge="1">
          <mxGeometry relative="1" as="geometry" />
        </mxCell>
        <mxCell id="xynN1DV7xF-PApxHEvJ0-22" value="RAM" style="text;html=1;align=center;verticalAlign=middle;whiteSpace=wrap;rounded=0;" parent="1" vertex="1">
          <mxGeometry x="480" y="790" width="60" height="30" as="geometry" />
        </mxCell>
        <mxCell id="xynN1DV7xF-PApxHEvJ0-27" style="edgeStyle=orthogonalEdgeStyle;rounded=0;orthogonalLoop=1;jettySize=auto;html=1;entryX=0.75;entryY=1;entryDx=0;entryDy=0;" parent="1" source="xynN1DV7xF-PApxHEvJ0-26" target="xynN1DV7xF-PApxHEvJ0-9" edge="1">
          <mxGeometry relative="1" as="geometry" />
        </mxCell>
        <mxCell id="xynN1DV7xF-PApxHEvJ0-26" value="користувач" style="text;html=1;align=center;verticalAlign=middle;whiteSpace=wrap;rounded=0;" parent="1" vertex="1">
          <mxGeometry x="350" y="670" width="60" height="30" as="geometry" />
        </mxCell>
        <mxCell id="xynN1DV7xF-PApxHEvJ0-49" style="edgeStyle=orthogonalEdgeStyle;rounded=0;orthogonalLoop=1;jettySize=auto;html=1;" parent="1" source="xynN1DV7xF-PApxHEvJ0-28" target="xynN1DV7xF-PApxHEvJ0-48" edge="1">
          <mxGeometry relative="1" as="geometry" />
        </mxCell>
        <mxCell id="xynN1DV7xF-PApxHEvJ0-28" value="провести перевірку фізичних компонент (POST теcт)" style="rounded=0;whiteSpace=wrap;html=1;" parent="1" vertex="1">
          <mxGeometry x="640" y="700" width="120" height="60" as="geometry" />
        </mxCell>
        <mxCell id="xynN1DV7xF-PApxHEvJ0-34" style="edgeStyle=orthogonalEdgeStyle;rounded=0;orthogonalLoop=1;jettySize=auto;html=1;entryX=0.75;entryY=1;entryDx=0;entryDy=0;" parent="1" source="xynN1DV7xF-PApxHEvJ0-33" target="xynN1DV7xF-PApxHEvJ0-10" edge="1">
          <mxGeometry relative="1" as="geometry" />
        </mxCell>
        <mxCell id="xynN1DV7xF-PApxHEvJ0-33" value="CPU" style="text;html=1;align=center;verticalAlign=middle;whiteSpace=wrap;rounded=0;" parent="1" vertex="1">
          <mxGeometry x="550" y="750" width="60" height="30" as="geometry" />
        </mxCell>
        <mxCell id="xynN1DV7xF-PApxHEvJ0-44" style="edgeStyle=orthogonalEdgeStyle;rounded=0;orthogonalLoop=1;jettySize=auto;html=1;" parent="1" source="xynN1DV7xF-PApxHEvJ0-37" target="xynN1DV7xF-PApxHEvJ0-28" edge="1">
          <mxGeometry relative="1" as="geometry">
            <Array as="points">
              <mxPoint x="720" y="880" />
              <mxPoint x="700" y="880" />
            </Array>
          </mxGeometry>
        </mxCell>
        <mxCell id="xynN1DV7xF-PApxHEvJ0-37" value="процесори" style="text;html=1;align=center;verticalAlign=middle;whiteSpace=wrap;rounded=0;" parent="1" vertex="1">
          <mxGeometry x="690" y="915" width="60" height="30" as="geometry" />
        </mxCell>
        <mxCell id="xynN1DV7xF-PApxHEvJ0-38" value="RAM (оперативна пам&#39;ять)" style="text;html=1;align=center;verticalAlign=middle;whiteSpace=wrap;rounded=0;" parent="1" vertex="1">
          <mxGeometry x="740" y="810" width="60" height="30" as="geometry" />
        </mxCell>
        <mxCell id="xynN1DV7xF-PApxHEvJ0-42" style="edgeStyle=orthogonalEdgeStyle;rounded=0;orthogonalLoop=1;jettySize=auto;html=1;entryX=0.25;entryY=1;entryDx=0;entryDy=0;" parent="1" target="xynN1DV7xF-PApxHEvJ0-28" edge="1">
          <mxGeometry relative="1" as="geometry">
            <mxPoint x="590" y="930" as="sourcePoint" />
            <Array as="points">
              <mxPoint x="590" y="820" />
              <mxPoint x="670" y="820" />
            </Array>
          </mxGeometry>
        </mxCell>
        <mxCell id="xynN1DV7xF-PApxHEvJ0-39" value="пристрій керування курсором" style="text;html=1;align=center;verticalAlign=middle;whiteSpace=wrap;rounded=0;" parent="1" vertex="1">
          <mxGeometry x="550" y="940" width="100" height="30" as="geometry" />
        </mxCell>
        <mxCell id="xynN1DV7xF-PApxHEvJ0-40" value="SSD/HDD (накопичувач)" style="text;html=1;align=center;verticalAlign=middle;whiteSpace=wrap;rounded=0;" parent="1" vertex="1">
          <mxGeometry x="750" y="885" width="60" height="30" as="geometry" />
        </mxCell>
        <mxCell id="xynN1DV7xF-PApxHEvJ0-41" value="клавіатура" style="text;html=1;align=center;verticalAlign=middle;whiteSpace=wrap;rounded=0;" parent="1" vertex="1">
          <mxGeometry x="650" y="950" width="60" height="30" as="geometry" />
        </mxCell>
        <mxCell id="xynN1DV7xF-PApxHEvJ0-43" style="edgeStyle=orthogonalEdgeStyle;rounded=0;orthogonalLoop=1;jettySize=auto;html=1;exitX=0.5;exitY=0;exitDx=0;exitDy=0;entryX=0.405;entryY=1.013;entryDx=0;entryDy=0;entryPerimeter=0;" parent="1" source="xynN1DV7xF-PApxHEvJ0-41" target="xynN1DV7xF-PApxHEvJ0-28" edge="1">
          <mxGeometry relative="1" as="geometry" />
        </mxCell>
        <mxCell id="xynN1DV7xF-PApxHEvJ0-45" style="edgeStyle=orthogonalEdgeStyle;rounded=0;orthogonalLoop=1;jettySize=auto;html=1;entryX=0.776;entryY=1.07;entryDx=0;entryDy=0;entryPerimeter=0;" parent="1" target="xynN1DV7xF-PApxHEvJ0-28" edge="1">
          <mxGeometry relative="1" as="geometry">
            <mxPoint x="770" y="800" as="sourcePoint" />
            <Array as="points">
              <mxPoint x="770" y="785" />
              <mxPoint x="733" y="785" />
            </Array>
          </mxGeometry>
        </mxCell>
        <mxCell id="xynN1DV7xF-PApxHEvJ0-46" style="edgeStyle=orthogonalEdgeStyle;rounded=0;orthogonalLoop=1;jettySize=auto;html=1;entryX=0.611;entryY=1.005;entryDx=0;entryDy=0;entryPerimeter=0;" parent="1" source="xynN1DV7xF-PApxHEvJ0-40" target="xynN1DV7xF-PApxHEvJ0-28" edge="1">
          <mxGeometry relative="1" as="geometry">
            <Array as="points">
              <mxPoint x="780" y="860" />
              <mxPoint x="713" y="860" />
            </Array>
          </mxGeometry>
        </mxCell>
        <mxCell id="xynN1DV7xF-PApxHEvJ0-68" style="edgeStyle=orthogonalEdgeStyle;rounded=0;orthogonalLoop=1;jettySize=auto;html=1;exitX=1;exitY=0.5;exitDx=0;exitDy=0;entryX=0;entryY=0.5;entryDx=0;entryDy=0;" parent="1" source="xynN1DV7xF-PApxHEvJ0-48" target="xynN1DV7xF-PApxHEvJ0-61" edge="1">
          <mxGeometry relative="1" as="geometry" />
        </mxCell>
        <mxCell id="xynN1DV7xF-PApxHEvJ0-48" value="завантажити ОС" style="rounded=0;whiteSpace=wrap;html=1;" parent="1" vertex="1">
          <mxGeometry x="860" y="745" width="120" height="60" as="geometry" />
        </mxCell>
        <mxCell id="xynN1DV7xF-PApxHEvJ0-51" style="edgeStyle=orthogonalEdgeStyle;rounded=0;orthogonalLoop=1;jettySize=auto;html=1;" parent="1" source="xynN1DV7xF-PApxHEvJ0-50" target="xynN1DV7xF-PApxHEvJ0-48" edge="1">
          <mxGeometry relative="1" as="geometry" />
        </mxCell>
        <mxCell id="xynN1DV7xF-PApxHEvJ0-50" value="MBR/GPT&amp;nbsp;" style="text;html=1;align=center;verticalAlign=middle;whiteSpace=wrap;rounded=0;" parent="1" vertex="1">
          <mxGeometry x="850" y="860" width="60" height="30" as="geometry" />
        </mxCell>
        <mxCell id="xynN1DV7xF-PApxHEvJ0-53" style="edgeStyle=orthogonalEdgeStyle;rounded=0;orthogonalLoop=1;jettySize=auto;html=1;" parent="1" source="xynN1DV7xF-PApxHEvJ0-52" target="xynN1DV7xF-PApxHEvJ0-48" edge="1">
          <mxGeometry relative="1" as="geometry" />
        </mxCell>
        <mxCell id="xynN1DV7xF-PApxHEvJ0-52" value="SSD/HDD (накопичувач)" style="text;html=1;align=center;verticalAlign=middle;whiteSpace=wrap;rounded=0;" parent="1" vertex="1">
          <mxGeometry x="920" y="950" width="60" height="30" as="geometry" />
        </mxCell>
        <mxCell id="xynN1DV7xF-PApxHEvJ0-56" value="RAM (оперативна пам&#39;ять)" style="text;html=1;align=center;verticalAlign=middle;whiteSpace=wrap;rounded=0;" parent="1" vertex="1">
          <mxGeometry x="970" y="870" width="60" height="40" as="geometry" />
        </mxCell>
        <mxCell id="xynN1DV7xF-PApxHEvJ0-57" style="edgeStyle=orthogonalEdgeStyle;rounded=0;orthogonalLoop=1;jettySize=auto;html=1;entryX=0.621;entryY=0.987;entryDx=0;entryDy=0;entryPerimeter=0;" parent="1" source="xynN1DV7xF-PApxHEvJ0-56" target="xynN1DV7xF-PApxHEvJ0-48" edge="1">
          <mxGeometry relative="1" as="geometry" />
        </mxCell>
        <mxCell id="xynN1DV7xF-PApxHEvJ0-59" style="edgeStyle=orthogonalEdgeStyle;rounded=0;orthogonalLoop=1;jettySize=auto;html=1;entryX=0.5;entryY=1;entryDx=0;entryDy=0;" parent="1" source="xynN1DV7xF-PApxHEvJ0-58" target="xynN1DV7xF-PApxHEvJ0-48" edge="1">
          <mxGeometry relative="1" as="geometry" />
        </mxCell>
        <mxCell id="xynN1DV7xF-PApxHEvJ0-58" value="bootloader" style="text;html=1;align=center;verticalAlign=middle;whiteSpace=wrap;rounded=0;" parent="1" vertex="1">
          <mxGeometry x="820" y="990" width="60" height="30" as="geometry" />
        </mxCell>
        <mxCell id="xynN1DV7xF-PApxHEvJ0-60" value="device drivers" style="text;html=1;align=center;verticalAlign=middle;whiteSpace=wrap;rounded=0;" parent="1" vertex="1">
          <mxGeometry x="1070" y="920" width="60" height="30" as="geometry" />
        </mxCell>
        <mxCell id="xynN1DV7xF-PApxHEvJ0-70" style="edgeStyle=orthogonalEdgeStyle;rounded=0;orthogonalLoop=1;jettySize=auto;html=1;" parent="1" source="xynN1DV7xF-PApxHEvJ0-61" target="xynN1DV7xF-PApxHEvJ0-69" edge="1">
          <mxGeometry relative="1" as="geometry" />
        </mxCell>
        <mxCell id="xynN1DV7xF-PApxHEvJ0-61" value="конфігурувати систему" style="rounded=0;whiteSpace=wrap;html=1;" parent="1" vertex="1">
          <mxGeometry x="1100" y="810" width="120" height="60" as="geometry" />
        </mxCell>
        <mxCell id="xynN1DV7xF-PApxHEvJ0-65" style="edgeStyle=orthogonalEdgeStyle;rounded=0;orthogonalLoop=1;jettySize=auto;html=1;" parent="1" source="xynN1DV7xF-PApxHEvJ0-62" target="xynN1DV7xF-PApxHEvJ0-61" edge="1">
          <mxGeometry relative="1" as="geometry" />
        </mxCell>
        <mxCell id="xynN1DV7xF-PApxHEvJ0-62" value="SSD/HDD (накопичувач)" style="text;html=1;align=center;verticalAlign=middle;whiteSpace=wrap;rounded=0;" parent="1" vertex="1">
          <mxGeometry x="1100" y="990" width="60" height="30" as="geometry" />
        </mxCell>
        <mxCell id="xynN1DV7xF-PApxHEvJ0-66" style="edgeStyle=orthogonalEdgeStyle;rounded=0;orthogonalLoop=1;jettySize=auto;html=1;" parent="1" source="xynN1DV7xF-PApxHEvJ0-63" target="xynN1DV7xF-PApxHEvJ0-61" edge="1">
          <mxGeometry relative="1" as="geometry" />
        </mxCell>
        <mxCell id="xynN1DV7xF-PApxHEvJ0-63" value="RAM (оперативна пам&#39;ять)" style="text;html=1;align=center;verticalAlign=middle;whiteSpace=wrap;rounded=0;" parent="1" vertex="1">
          <mxGeometry x="1170" y="930" width="60" height="30" as="geometry" />
        </mxCell>
        <mxCell id="xynN1DV7xF-PApxHEvJ0-64" style="edgeStyle=orthogonalEdgeStyle;rounded=0;orthogonalLoop=1;jettySize=auto;html=1;entryX=0.184;entryY=1.034;entryDx=0;entryDy=0;entryPerimeter=0;" parent="1" source="xynN1DV7xF-PApxHEvJ0-60" target="xynN1DV7xF-PApxHEvJ0-61" edge="1">
          <mxGeometry relative="1" as="geometry" />
        </mxCell>
        <mxCell id="xynN1DV7xF-PApxHEvJ0-76" style="edgeStyle=orthogonalEdgeStyle;rounded=0;orthogonalLoop=1;jettySize=auto;html=1;exitX=1;exitY=0.5;exitDx=0;exitDy=0;" parent="1" source="xynN1DV7xF-PApxHEvJ0-69" target="xynN1DV7xF-PApxHEvJ0-75" edge="1">
          <mxGeometry relative="1" as="geometry" />
        </mxCell>
        <mxCell id="xynN1DV7xF-PApxHEvJ0-69" value="завантажити системні&amp;nbsp;&lt;div&gt;застосунки&lt;/div&gt;" style="rounded=0;whiteSpace=wrap;html=1;" parent="1" vertex="1">
          <mxGeometry x="1290" y="870" width="120" height="60" as="geometry" />
        </mxCell>
        <mxCell id="xynN1DV7xF-PApxHEvJ0-71" value="антивірус" style="text;html=1;align=center;verticalAlign=middle;whiteSpace=wrap;rounded=0;" parent="1" vertex="1">
          <mxGeometry x="1260" y="1020" width="60" height="30" as="geometry" />
        </mxCell>
        <mxCell id="xynN1DV7xF-PApxHEvJ0-74" style="edgeStyle=orthogonalEdgeStyle;rounded=0;orthogonalLoop=1;jettySize=auto;html=1;entryX=0.75;entryY=1;entryDx=0;entryDy=0;" parent="1" source="xynN1DV7xF-PApxHEvJ0-72" target="xynN1DV7xF-PApxHEvJ0-69" edge="1">
          <mxGeometry relative="1" as="geometry" />
        </mxCell>
        <mxCell id="xynN1DV7xF-PApxHEvJ0-72" value="system volume" style="text;html=1;align=center;verticalAlign=middle;whiteSpace=wrap;rounded=0;" parent="1" vertex="1">
          <mxGeometry x="1350" y="1000" width="60" height="30" as="geometry" />
        </mxCell>
        <mxCell id="xynN1DV7xF-PApxHEvJ0-73" style="edgeStyle=orthogonalEdgeStyle;rounded=0;orthogonalLoop=1;jettySize=auto;html=1;entryX=0.178;entryY=0.982;entryDx=0;entryDy=0;entryPerimeter=0;" parent="1" source="xynN1DV7xF-PApxHEvJ0-71" target="xynN1DV7xF-PApxHEvJ0-69" edge="1">
          <mxGeometry relative="1" as="geometry" />
        </mxCell>
        <mxCell id="9BUm0SveGyXNc4T9sePO-149" style="edgeStyle=orthogonalEdgeStyle;rounded=0;orthogonalLoop=1;jettySize=auto;html=1;" edge="1" parent="1" source="xynN1DV7xF-PApxHEvJ0-75">
          <mxGeometry relative="1" as="geometry">
            <mxPoint x="1640" y="955" as="targetPoint" />
          </mxGeometry>
        </mxCell>
        <mxCell id="xynN1DV7xF-PApxHEvJ0-75" value="ідентифікувати користувача" style="rounded=0;whiteSpace=wrap;html=1;" parent="1" vertex="1">
          <mxGeometry x="1470" y="925" width="120" height="60" as="geometry" />
        </mxCell>
        <mxCell id="xynN1DV7xF-PApxHEvJ0-78" style="edgeStyle=orthogonalEdgeStyle;rounded=0;orthogonalLoop=1;jettySize=auto;html=1;" parent="1" source="xynN1DV7xF-PApxHEvJ0-77" target="xynN1DV7xF-PApxHEvJ0-75" edge="1">
          <mxGeometry relative="1" as="geometry" />
        </mxCell>
        <mxCell id="xynN1DV7xF-PApxHEvJ0-77" value="інтерфейс ОС" style="text;html=1;align=center;verticalAlign=middle;whiteSpace=wrap;rounded=0;" parent="1" vertex="1">
          <mxGeometry x="1460" y="1030" width="60" height="30" as="geometry" />
        </mxCell>
        <mxCell id="xynN1DV7xF-PApxHEvJ0-80" style="edgeStyle=orthogonalEdgeStyle;rounded=0;orthogonalLoop=1;jettySize=auto;html=1;" parent="1" source="xynN1DV7xF-PApxHEvJ0-79" target="xynN1DV7xF-PApxHEvJ0-75" edge="1">
          <mxGeometry relative="1" as="geometry" />
        </mxCell>
        <mxCell id="xynN1DV7xF-PApxHEvJ0-79" value="користувач" style="text;html=1;align=center;verticalAlign=middle;whiteSpace=wrap;rounded=0;" parent="1" vertex="1">
          <mxGeometry x="1530" y="1030" width="60" height="30" as="geometry" />
        </mxCell>
        <mxCell id="xynN1DV7xF-PApxHEvJ0-83" value="&lt;h1 style=&quot;margin-top: 0px;&quot;&gt;Booting process&lt;/h1&gt;" style="text;html=1;whiteSpace=wrap;overflow=hidden;rounded=0;" parent="1" vertex="1">
          <mxGeometry x="660" y="560" width="220" height="120" as="geometry" />
        </mxCell>
        <mxCell id="xynN1DV7xF-PApxHEvJ0-104" style="edgeStyle=orthogonalEdgeStyle;rounded=0;orthogonalLoop=1;jettySize=auto;html=1;exitX=1;exitY=0.5;exitDx=0;exitDy=0;entryX=0;entryY=0.5;entryDx=0;entryDy=0;" parent="1" source="xynN1DV7xF-PApxHEvJ0-89" target="xynN1DV7xF-PApxHEvJ0-90" edge="1">
          <mxGeometry relative="1" as="geometry" />
        </mxCell>
        <mxCell id="xynN1DV7xF-PApxHEvJ0-89" value="&quot;взути&quot; ноутбук" style="rounded=0;whiteSpace=wrap;html=1;fillColor=#dae8fc;strokeColor=#6c8ebf;" parent="1" vertex="1">
          <mxGeometry x="780" y="295" width="120" height="60" as="geometry" />
        </mxCell>
        <mxCell id="xynN1DV7xF-PApxHEvJ0-105" style="edgeStyle=orthogonalEdgeStyle;rounded=0;orthogonalLoop=1;jettySize=auto;html=1;exitX=1;exitY=0.5;exitDx=0;exitDy=0;" parent="1" source="xynN1DV7xF-PApxHEvJ0-90" target="xynN1DV7xF-PApxHEvJ0-106" edge="1">
          <mxGeometry relative="1" as="geometry">
            <mxPoint x="1160" y="374.6521739130435" as="targetPoint" />
          </mxGeometry>
        </mxCell>
        <mxCell id="9BUm0SveGyXNc4T9sePO-156" style="edgeStyle=orthogonalEdgeStyle;rounded=0;orthogonalLoop=1;jettySize=auto;html=1;exitX=1;exitY=0.75;exitDx=0;exitDy=0;entryX=0;entryY=0.5;entryDx=0;entryDy=0;" edge="1" parent="1" source="xynN1DV7xF-PApxHEvJ0-90" target="9BUm0SveGyXNc4T9sePO-153">
          <mxGeometry relative="1" as="geometry" />
        </mxCell>
        <mxCell id="xynN1DV7xF-PApxHEvJ0-90" value="взаємодіяти з ОС та іншим ПЗ" style="rounded=0;whiteSpace=wrap;html=1;fillColor=#dae8fc;strokeColor=#6c8ebf;" parent="1" vertex="1">
          <mxGeometry x="990" y="345" width="120" height="60" as="geometry" />
        </mxCell>
        <mxCell id="xynN1DV7xF-PApxHEvJ0-102" style="edgeStyle=orthogonalEdgeStyle;rounded=0;orthogonalLoop=1;jettySize=auto;html=1;entryX=0;entryY=0.5;entryDx=0;entryDy=0;" parent="1" source="xynN1DV7xF-PApxHEvJ0-91" target="xynN1DV7xF-PApxHEvJ0-89" edge="1">
          <mxGeometry relative="1" as="geometry" />
        </mxCell>
        <mxCell id="xynN1DV7xF-PApxHEvJ0-91" value="ввімкнути&amp;nbsp;" style="text;html=1;align=center;verticalAlign=middle;whiteSpace=wrap;rounded=0;" parent="1" vertex="1">
          <mxGeometry x="650" y="310" width="60" height="30" as="geometry" />
        </mxCell>
        <mxCell id="xynN1DV7xF-PApxHEvJ0-101" style="edgeStyle=orthogonalEdgeStyle;rounded=0;orthogonalLoop=1;jettySize=auto;html=1;entryX=0.5;entryY=0;entryDx=0;entryDy=0;" parent="1" source="xynN1DV7xF-PApxHEvJ0-93" target="xynN1DV7xF-PApxHEvJ0-90" edge="1">
          <mxGeometry relative="1" as="geometry" />
        </mxCell>
        <mxCell id="xynN1DV7xF-PApxHEvJ0-93" value="базова комп&#39;ютерна грамотність" style="text;html=1;align=center;verticalAlign=middle;whiteSpace=wrap;rounded=0;" parent="1" vertex="1">
          <mxGeometry x="1005" y="260" width="90" height="30" as="geometry" />
        </mxCell>
        <mxCell id="xynN1DV7xF-PApxHEvJ0-94" value="hardware&lt;div&gt;(апаратна частина ноутбука)&lt;/div&gt;" style="text;html=1;align=center;verticalAlign=middle;whiteSpace=wrap;rounded=0;" parent="1" vertex="1">
          <mxGeometry x="740" y="405" width="70" height="80" as="geometry" />
        </mxCell>
        <mxCell id="9BUm0SveGyXNc4T9sePO-139" style="edgeStyle=orthogonalEdgeStyle;rounded=0;orthogonalLoop=1;jettySize=auto;html=1;entryX=0.75;entryY=1;entryDx=0;entryDy=0;" edge="1" parent="1" source="xynN1DV7xF-PApxHEvJ0-95" target="xynN1DV7xF-PApxHEvJ0-89">
          <mxGeometry relative="1" as="geometry" />
        </mxCell>
        <mxCell id="xynN1DV7xF-PApxHEvJ0-95" value="користувач" style="text;html=1;align=center;verticalAlign=middle;whiteSpace=wrap;rounded=0;" parent="1" vertex="1">
          <mxGeometry x="860" y="405" width="60" height="30" as="geometry" />
        </mxCell>
        <mxCell id="xynN1DV7xF-PApxHEvJ0-106" value="вихідні дані" style="text;html=1;align=center;verticalAlign=middle;whiteSpace=wrap;rounded=0;" parent="1" vertex="1">
          <mxGeometry x="1130" y="359.6521739130435" width="60" height="30" as="geometry" />
        </mxCell>
        <mxCell id="9BUm0SveGyXNc4T9sePO-11" style="edgeStyle=orthogonalEdgeStyle;rounded=0;orthogonalLoop=1;jettySize=auto;html=1;entryX=0;entryY=0.5;entryDx=0;entryDy=0;" edge="1" parent="1" source="9BUm0SveGyXNc4T9sePO-2" target="9BUm0SveGyXNc4T9sePO-12">
          <mxGeometry relative="1" as="geometry">
            <mxPoint x="1730" y="540.0000000000001" as="targetPoint" />
          </mxGeometry>
        </mxCell>
        <mxCell id="9BUm0SveGyXNc4T9sePO-2" value="&lt;div&gt;Отримати&lt;/div&gt;&lt;div&gt;інструкцію&lt;/div&gt;" style="rounded=0;whiteSpace=wrap;html=1;fillColor=#e1d5e7;strokeColor=#9673a6;" vertex="1" parent="1">
          <mxGeometry x="1510" y="500" width="120" height="60" as="geometry" />
        </mxCell>
        <mxCell id="9BUm0SveGyXNc4T9sePO-3" value="&lt;h1 style=&quot;margin-top: 0px;&quot;&gt;Взаємодіяти з ПЗ&lt;/h1&gt;&lt;p&gt;&lt;br&gt;&lt;/p&gt;" style="text;html=1;whiteSpace=wrap;overflow=hidden;rounded=0;" vertex="1" parent="1">
          <mxGeometry x="1490" y="240" width="220" height="60" as="geometry" />
        </mxCell>
        <mxCell id="9BUm0SveGyXNc4T9sePO-9" style="edgeStyle=orthogonalEdgeStyle;rounded=0;orthogonalLoop=1;jettySize=auto;html=1;" edge="1" parent="1" source="9BUm0SveGyXNc4T9sePO-4" target="9BUm0SveGyXNc4T9sePO-2">
          <mxGeometry relative="1" as="geometry" />
        </mxCell>
        <mxCell id="9BUm0SveGyXNc4T9sePO-4" value="вхідні дані" style="text;html=1;align=center;verticalAlign=middle;whiteSpace=wrap;rounded=0;" vertex="1" parent="1">
          <mxGeometry x="1350" y="510" width="60" height="30" as="geometry" />
        </mxCell>
        <mxCell id="9BUm0SveGyXNc4T9sePO-7" style="edgeStyle=orthogonalEdgeStyle;rounded=0;orthogonalLoop=1;jettySize=auto;html=1;" edge="1" parent="1" source="9BUm0SveGyXNc4T9sePO-5" target="9BUm0SveGyXNc4T9sePO-2">
          <mxGeometry relative="1" as="geometry" />
        </mxCell>
        <mxCell id="9BUm0SveGyXNc4T9sePO-5" value="Інтерейс ПЗ" style="text;html=1;align=center;verticalAlign=middle;whiteSpace=wrap;rounded=0;" vertex="1" parent="1">
          <mxGeometry x="1480" y="620" width="60" height="30" as="geometry" />
        </mxCell>
        <mxCell id="9BUm0SveGyXNc4T9sePO-6" value="Людина" style="text;html=1;align=center;verticalAlign=middle;whiteSpace=wrap;rounded=0;" vertex="1" parent="1">
          <mxGeometry x="1580" y="620" width="60" height="30" as="geometry" />
        </mxCell>
        <mxCell id="9BUm0SveGyXNc4T9sePO-8" style="edgeStyle=orthogonalEdgeStyle;rounded=0;orthogonalLoop=1;jettySize=auto;html=1;entryX=0.614;entryY=1.022;entryDx=0;entryDy=0;entryPerimeter=0;" edge="1" parent="1" source="9BUm0SveGyXNc4T9sePO-6" target="9BUm0SveGyXNc4T9sePO-2">
          <mxGeometry relative="1" as="geometry" />
        </mxCell>
        <mxCell id="9BUm0SveGyXNc4T9sePO-16" style="edgeStyle=orthogonalEdgeStyle;rounded=0;orthogonalLoop=1;jettySize=auto;html=1;" edge="1" parent="1" source="9BUm0SveGyXNc4T9sePO-10" target="9BUm0SveGyXNc4T9sePO-2">
          <mxGeometry relative="1" as="geometry" />
        </mxCell>
        <mxCell id="9BUm0SveGyXNc4T9sePO-10" value="базова комп&#39;ютерна грамотність" style="text;html=1;align=center;verticalAlign=middle;whiteSpace=wrap;rounded=0;" vertex="1" parent="1">
          <mxGeometry x="1520" y="415" width="60" height="30" as="geometry" />
        </mxCell>
        <mxCell id="9BUm0SveGyXNc4T9sePO-21" style="edgeStyle=orthogonalEdgeStyle;rounded=0;orthogonalLoop=1;jettySize=auto;html=1;exitX=1;exitY=0.5;exitDx=0;exitDy=0;entryX=0;entryY=0.5;entryDx=0;entryDy=0;" edge="1" parent="1" source="9BUm0SveGyXNc4T9sePO-12" target="9BUm0SveGyXNc4T9sePO-20">
          <mxGeometry relative="1" as="geometry" />
        </mxCell>
        <mxCell id="9BUm0SveGyXNc4T9sePO-12" value="перетворити інструкцію у API виклик ресурсу&amp;nbsp;" style="rounded=0;whiteSpace=wrap;html=1;fillColor=#e1d5e7;strokeColor=#9673a6;" vertex="1" parent="1">
          <mxGeometry x="1740" y="565" width="120" height="60" as="geometry" />
        </mxCell>
        <mxCell id="9BUm0SveGyXNc4T9sePO-18" style="edgeStyle=orthogonalEdgeStyle;rounded=0;orthogonalLoop=1;jettySize=auto;html=1;" edge="1" parent="1" source="9BUm0SveGyXNc4T9sePO-13" target="9BUm0SveGyXNc4T9sePO-12">
          <mxGeometry relative="1" as="geometry" />
        </mxCell>
        <mxCell id="9BUm0SveGyXNc4T9sePO-13" value="ПЗ" style="text;html=1;align=center;verticalAlign=middle;whiteSpace=wrap;rounded=0;" vertex="1" parent="1">
          <mxGeometry x="1720" y="690" width="60" height="30" as="geometry" />
        </mxCell>
        <mxCell id="9BUm0SveGyXNc4T9sePO-19" style="edgeStyle=orthogonalEdgeStyle;rounded=0;orthogonalLoop=1;jettySize=auto;html=1;" edge="1" parent="1" source="9BUm0SveGyXNc4T9sePO-14" target="9BUm0SveGyXNc4T9sePO-12">
          <mxGeometry relative="1" as="geometry" />
        </mxCell>
        <mxCell id="9BUm0SveGyXNc4T9sePO-14" value="ОС" style="text;html=1;align=center;verticalAlign=middle;whiteSpace=wrap;rounded=0;" vertex="1" parent="1">
          <mxGeometry x="1780" y="690" width="60" height="30" as="geometry" />
        </mxCell>
        <mxCell id="9BUm0SveGyXNc4T9sePO-17" style="edgeStyle=orthogonalEdgeStyle;rounded=0;orthogonalLoop=1;jettySize=auto;html=1;" edge="1" parent="1" target="9BUm0SveGyXNc4T9sePO-12">
          <mxGeometry relative="1" as="geometry">
            <mxPoint x="1800" y="530" as="sourcePoint" />
          </mxGeometry>
        </mxCell>
        <mxCell id="9BUm0SveGyXNc4T9sePO-15" value="API (системні виклики/функції для комунікації ПЗ з ОС)" style="text;html=1;align=center;verticalAlign=middle;whiteSpace=wrap;rounded=0;" vertex="1" parent="1">
          <mxGeometry x="1730" y="490" width="150" height="30" as="geometry" />
        </mxCell>
        <mxCell id="9BUm0SveGyXNc4T9sePO-20" value="пертворити API-виклик у системний виклик&amp;nbsp;" style="rounded=0;whiteSpace=wrap;html=1;fillColor=#dae8fc;strokeColor=#6c8ebf;" vertex="1" parent="1">
          <mxGeometry x="1910" y="610" width="120" height="60" as="geometry" />
        </mxCell>
        <mxCell id="9BUm0SveGyXNc4T9sePO-23" style="edgeStyle=orthogonalEdgeStyle;rounded=0;orthogonalLoop=1;jettySize=auto;html=1;" edge="1" parent="1" source="9BUm0SveGyXNc4T9sePO-22" target="9BUm0SveGyXNc4T9sePO-20">
          <mxGeometry relative="1" as="geometry" />
        </mxCell>
        <mxCell id="9BUm0SveGyXNc4T9sePO-22" value="ОС" style="text;html=1;align=center;verticalAlign=middle;whiteSpace=wrap;rounded=0;" vertex="1" parent="1">
          <mxGeometry x="1910" y="730" width="60" height="30" as="geometry" />
        </mxCell>
        <mxCell id="9BUm0SveGyXNc4T9sePO-25" style="edgeStyle=orthogonalEdgeStyle;rounded=0;orthogonalLoop=1;jettySize=auto;html=1;" edge="1" parent="1" source="9BUm0SveGyXNc4T9sePO-24" target="9BUm0SveGyXNc4T9sePO-20">
          <mxGeometry relative="1" as="geometry" />
        </mxCell>
        <mxCell id="9BUm0SveGyXNc4T9sePO-24" value="hardware (CPU, RAM, storage devices, Network Interface Card, etc)" style="text;html=1;align=center;verticalAlign=middle;whiteSpace=wrap;rounded=0;" vertex="1" parent="1">
          <mxGeometry x="1970" y="775" width="80" height="80" as="geometry" />
        </mxCell>
        <mxCell id="9BUm0SveGyXNc4T9sePO-60" style="edgeStyle=orthogonalEdgeStyle;rounded=0;orthogonalLoop=1;jettySize=auto;html=1;entryX=0;entryY=0.75;entryDx=0;entryDy=0;" edge="1" parent="1" source="9BUm0SveGyXNc4T9sePO-26" target="9BUm0SveGyXNc4T9sePO-59">
          <mxGeometry relative="1" as="geometry" />
        </mxCell>
        <mxCell id="9BUm0SveGyXNc4T9sePO-26" value="завантажити системний виклик в RAM" style="rounded=0;whiteSpace=wrap;html=1;fillColor=#dae8fc;strokeColor=#6c8ebf;" vertex="1" parent="1">
          <mxGeometry x="2110" y="700" width="120" height="60" as="geometry" />
        </mxCell>
        <mxCell id="9BUm0SveGyXNc4T9sePO-27" style="edgeStyle=orthogonalEdgeStyle;rounded=0;orthogonalLoop=1;jettySize=auto;html=1;exitX=1;exitY=0.5;exitDx=0;exitDy=0;" edge="1" parent="1" source="9BUm0SveGyXNc4T9sePO-20">
          <mxGeometry relative="1" as="geometry">
            <mxPoint x="2112" y="730" as="targetPoint" />
            <Array as="points">
              <mxPoint x="2050" y="640" />
              <mxPoint x="2050" y="730" />
            </Array>
          </mxGeometry>
        </mxCell>
        <mxCell id="9BUm0SveGyXNc4T9sePO-31" style="edgeStyle=orthogonalEdgeStyle;rounded=0;orthogonalLoop=1;jettySize=auto;html=1;" edge="1" parent="1" source="9BUm0SveGyXNc4T9sePO-28" target="9BUm0SveGyXNc4T9sePO-26">
          <mxGeometry relative="1" as="geometry" />
        </mxCell>
        <mxCell id="9BUm0SveGyXNc4T9sePO-28" value="RAM" style="text;html=1;align=center;verticalAlign=middle;whiteSpace=wrap;rounded=0;" vertex="1" parent="1">
          <mxGeometry x="2095" y="810" width="60" height="30" as="geometry" />
        </mxCell>
        <mxCell id="9BUm0SveGyXNc4T9sePO-36" style="edgeStyle=orthogonalEdgeStyle;rounded=0;orthogonalLoop=1;jettySize=auto;html=1;" edge="1" parent="1" source="9BUm0SveGyXNc4T9sePO-33" target="9BUm0SveGyXNc4T9sePO-26">
          <mxGeometry relative="1" as="geometry" />
        </mxCell>
        <mxCell id="9BUm0SveGyXNc4T9sePO-33" value="ОС" style="text;html=1;align=center;verticalAlign=middle;whiteSpace=wrap;rounded=0;" vertex="1" parent="1">
          <mxGeometry x="2140" y="850" width="60" height="30" as="geometry" />
        </mxCell>
        <mxCell id="9BUm0SveGyXNc4T9sePO-47" value="" style="edgeStyle=orthogonalEdgeStyle;rounded=0;orthogonalLoop=1;jettySize=auto;html=1;" edge="1" parent="1" source="9BUm0SveGyXNc4T9sePO-37" target="9BUm0SveGyXNc4T9sePO-39">
          <mxGeometry relative="1" as="geometry">
            <Array as="points">
              <mxPoint x="2600" y="870" />
              <mxPoint x="2600" y="910" />
            </Array>
          </mxGeometry>
        </mxCell>
        <mxCell id="9BUm0SveGyXNc4T9sePO-37" value="декодувати системний виклик у CPU" style="rounded=0;whiteSpace=wrap;html=1;fillColor=#d5e8d4;strokeColor=#82b366;" vertex="1" parent="1">
          <mxGeometry x="2460" y="825" width="120" height="60" as="geometry" />
        </mxCell>
        <mxCell id="9BUm0SveGyXNc4T9sePO-39" value="виконати&lt;div&gt;&amp;nbsp;інструкцію системним ресурсом&amp;nbsp;&lt;/div&gt;" style="rounded=0;whiteSpace=wrap;html=1;fillColor=#d5e8d4;strokeColor=#82b366;" vertex="1" parent="1">
          <mxGeometry x="2630" y="870" width="120" height="70" as="geometry" />
        </mxCell>
        <mxCell id="9BUm0SveGyXNc4T9sePO-68" style="edgeStyle=orthogonalEdgeStyle;rounded=0;orthogonalLoop=1;jettySize=auto;html=1;exitX=1;exitY=0.5;exitDx=0;exitDy=0;entryX=0;entryY=0.5;entryDx=0;entryDy=0;" edge="1" parent="1" source="9BUm0SveGyXNc4T9sePO-40" target="9BUm0SveGyXNc4T9sePO-69">
          <mxGeometry relative="1" as="geometry">
            <mxPoint x="3020.0000000000005" y="1010" as="targetPoint" />
          </mxGeometry>
        </mxCell>
        <mxCell id="9BUm0SveGyXNc4T9sePO-40" value="зберегти вихідні дані в системному ресурсі" style="rounded=0;whiteSpace=wrap;html=1;fillColor=#d5e8d4;strokeColor=#82b366;" vertex="1" parent="1">
          <mxGeometry x="2830" y="930" width="120" height="60" as="geometry" />
        </mxCell>
        <mxCell id="9BUm0SveGyXNc4T9sePO-45" style="edgeStyle=orthogonalEdgeStyle;rounded=0;orthogonalLoop=1;jettySize=auto;html=1;" edge="1" parent="1" source="9BUm0SveGyXNc4T9sePO-42" target="9BUm0SveGyXNc4T9sePO-37">
          <mxGeometry relative="1" as="geometry" />
        </mxCell>
        <mxCell id="9BUm0SveGyXNc4T9sePO-42" value="системний ресурс (CPU, GPU, etc)" style="text;html=1;align=center;verticalAlign=middle;whiteSpace=wrap;rounded=0;" vertex="1" parent="1">
          <mxGeometry x="2485" y="930" width="70" height="60" as="geometry" />
        </mxCell>
        <mxCell id="9BUm0SveGyXNc4T9sePO-51" style="edgeStyle=orthogonalEdgeStyle;rounded=0;orthogonalLoop=1;jettySize=auto;html=1;" edge="1" parent="1" source="9BUm0SveGyXNc4T9sePO-49" target="9BUm0SveGyXNc4T9sePO-39">
          <mxGeometry relative="1" as="geometry" />
        </mxCell>
        <mxCell id="9BUm0SveGyXNc4T9sePO-49" value="системний ресурс (CPU, GPU, etc)" style="text;html=1;align=center;verticalAlign=middle;whiteSpace=wrap;rounded=0;" vertex="1" parent="1">
          <mxGeometry x="2630" y="980" width="120" height="50" as="geometry" />
        </mxCell>
        <mxCell id="9BUm0SveGyXNc4T9sePO-55" style="edgeStyle=orthogonalEdgeStyle;rounded=0;orthogonalLoop=1;jettySize=auto;html=1;" edge="1" parent="1" target="9BUm0SveGyXNc4T9sePO-40">
          <mxGeometry relative="1" as="geometry">
            <mxPoint x="2890" y="1050" as="sourcePoint" />
          </mxGeometry>
        </mxCell>
        <mxCell id="9BUm0SveGyXNc4T9sePO-58" style="edgeStyle=orthogonalEdgeStyle;rounded=0;orthogonalLoop=1;jettySize=auto;html=1;exitX=1;exitY=0.5;exitDx=0;exitDy=0;entryX=0.012;entryY=0.631;entryDx=0;entryDy=0;entryPerimeter=0;" edge="1" parent="1" source="9BUm0SveGyXNc4T9sePO-39" target="9BUm0SveGyXNc4T9sePO-40">
          <mxGeometry relative="1" as="geometry">
            <Array as="points">
              <mxPoint x="2770" y="905" />
              <mxPoint x="2770" y="970" />
              <mxPoint x="2831" y="970" />
            </Array>
          </mxGeometry>
        </mxCell>
        <mxCell id="9BUm0SveGyXNc4T9sePO-61" style="edgeStyle=orthogonalEdgeStyle;rounded=0;orthogonalLoop=1;jettySize=auto;html=1;exitX=1;exitY=0.5;exitDx=0;exitDy=0;" edge="1" parent="1" source="9BUm0SveGyXNc4T9sePO-59" target="9BUm0SveGyXNc4T9sePO-37">
          <mxGeometry relative="1" as="geometry" />
        </mxCell>
        <mxCell id="9BUm0SveGyXNc4T9sePO-59" value="завантажити системний виклик у системний ресурс" style="rounded=0;whiteSpace=wrap;html=1;fillColor=#d5e8d4;strokeColor=#82b366;" vertex="1" parent="1">
          <mxGeometry x="2300" y="780" width="120" height="60" as="geometry" />
        </mxCell>
        <mxCell id="9BUm0SveGyXNc4T9sePO-66" style="edgeStyle=orthogonalEdgeStyle;rounded=0;orthogonalLoop=1;jettySize=auto;html=1;entryX=0.298;entryY=1.005;entryDx=0;entryDy=0;entryPerimeter=0;" edge="1" parent="1" source="9BUm0SveGyXNc4T9sePO-62" target="9BUm0SveGyXNc4T9sePO-59">
          <mxGeometry relative="1" as="geometry" />
        </mxCell>
        <mxCell id="9BUm0SveGyXNc4T9sePO-62" value="ОС" style="text;html=1;align=center;verticalAlign=middle;whiteSpace=wrap;rounded=0;" vertex="1" parent="1">
          <mxGeometry x="2280" y="880" width="60" height="30" as="geometry" />
        </mxCell>
        <mxCell id="9BUm0SveGyXNc4T9sePO-63" value="RAM" style="text;html=1;align=center;verticalAlign=middle;whiteSpace=wrap;rounded=0;" vertex="1" parent="1">
          <mxGeometry x="2320" y="940" width="60" height="30" as="geometry" />
        </mxCell>
        <mxCell id="9BUm0SveGyXNc4T9sePO-65" style="edgeStyle=orthogonalEdgeStyle;rounded=0;orthogonalLoop=1;jettySize=auto;html=1;" edge="1" parent="1">
          <mxGeometry relative="1" as="geometry">
            <mxPoint x="2410" y="930" as="sourcePoint" />
            <mxPoint x="2370" y="840" as="targetPoint" />
            <Array as="points">
              <mxPoint x="2410" y="875" />
              <mxPoint x="2370" y="875" />
              <mxPoint x="2370" y="840" />
            </Array>
          </mxGeometry>
        </mxCell>
        <mxCell id="9BUm0SveGyXNc4T9sePO-64" value="системний ресурс (CPU, GPU, etc)" style="text;html=1;align=center;verticalAlign=middle;whiteSpace=wrap;rounded=0;" vertex="1" parent="1">
          <mxGeometry x="2380" y="940" width="60" height="30" as="geometry" />
        </mxCell>
        <mxCell id="9BUm0SveGyXNc4T9sePO-67" style="edgeStyle=orthogonalEdgeStyle;rounded=0;orthogonalLoop=1;jettySize=auto;html=1;" edge="1" parent="1" source="9BUm0SveGyXNc4T9sePO-63">
          <mxGeometry relative="1" as="geometry">
            <mxPoint x="2350" y="840" as="targetPoint" />
          </mxGeometry>
        </mxCell>
        <mxCell id="9BUm0SveGyXNc4T9sePO-75" style="edgeStyle=orthogonalEdgeStyle;rounded=0;orthogonalLoop=1;jettySize=auto;html=1;exitX=1;exitY=0.5;exitDx=0;exitDy=0;entryX=0;entryY=0.5;entryDx=0;entryDy=0;" edge="1" parent="1" source="9BUm0SveGyXNc4T9sePO-69" target="9BUm0SveGyXNc4T9sePO-74">
          <mxGeometry relative="1" as="geometry" />
        </mxCell>
        <mxCell id="9BUm0SveGyXNc4T9sePO-69" value="витягти вихідні дані (результат інструкції) API викликами/callback функціями(звортнього зв&#39;язку)" style="rounded=0;whiteSpace=wrap;html=1;fillColor=#fff2cc;strokeColor=#d6b656;" vertex="1" parent="1">
          <mxGeometry x="3000" y="1020" width="160" height="80" as="geometry" />
        </mxCell>
        <mxCell id="9BUm0SveGyXNc4T9sePO-72" style="edgeStyle=orthogonalEdgeStyle;rounded=0;orthogonalLoop=1;jettySize=auto;html=1;entryX=0.25;entryY=1;entryDx=0;entryDy=0;" edge="1" parent="1" source="9BUm0SveGyXNc4T9sePO-70" target="9BUm0SveGyXNc4T9sePO-69">
          <mxGeometry relative="1" as="geometry" />
        </mxCell>
        <mxCell id="9BUm0SveGyXNc4T9sePO-70" value="ОС" style="text;html=1;align=center;verticalAlign=middle;whiteSpace=wrap;rounded=0;" vertex="1" parent="1">
          <mxGeometry x="3010" y="1140" width="60" height="30" as="geometry" />
        </mxCell>
        <mxCell id="9BUm0SveGyXNc4T9sePO-73" style="edgeStyle=orthogonalEdgeStyle;rounded=0;orthogonalLoop=1;jettySize=auto;html=1;entryX=0.75;entryY=1;entryDx=0;entryDy=0;" edge="1" parent="1" source="9BUm0SveGyXNc4T9sePO-71" target="9BUm0SveGyXNc4T9sePO-69">
          <mxGeometry relative="1" as="geometry" />
        </mxCell>
        <mxCell id="9BUm0SveGyXNc4T9sePO-71" value="системний ресурс (CPU, GPU, etc)&lt;span style=&quot;color: rgba(0, 0, 0, 0); font-family: monospace; font-size: 0px; text-align: start; text-wrap: nowrap;&quot;&gt;%3CmxGraphModel%3E%3Croot%3E%3CmxCell%20id%3D%220%22%2F%3E%3CmxCell%20id%3D%221%22%20parent%3D%220%22%2F%3E%3CmxCell%20id%3D%222%22%20value%3D%22%D1%81%D0%B8%D1%81%D1%82%D0%B5%D0%BC%D0%BD%D0%B8%D0%B9%20%D1%80%D0%B5%D1%81%D1%83%D1%80%D1%81%D0%B8%20(CPU%2C%20GPU%2C%20etc)%22%20style%3D%22text%3Bhtml%3D1%3Balign%3Dcenter%3BverticalAlign%3Dmiddle%3BwhiteSpace%3Dwrap%3Brounded%3D0%3B%22%20vertex%3D%221%22%20parent%3D%221%22%3E%3CmxGeometry%20x%3D%222630%22%20y%3D%22980%22%20width%3D%22120%22%20height%3D%2250%22%20as%3D%22geometry%22%2F%3E%3C%2FmxCell%3E%3C%2Froot%3E%3C%2FmxGraphModel%3E&lt;/span&gt;&lt;span style=&quot;color: rgba(0, 0, 0, 0); font-family: monospace; font-size: 0px; text-align: start; text-wrap: nowrap;&quot;&gt;%3CmxGraphModel%3E%3Croot%3E%3CmxCell%20id%3D%220%22%2F%3E%3CmxCell%20id%3D%221%22%20parent%3D%220%22%2F%3E%3CmxCell%20id%3D%222%22%20value%3D%22%D1%81%D0%B8%D1%81%D1%82%D0%B5%D0%BC%D0%BD%D0%B8%D0%B9%20%D1%80%D0%B5%D1%81%D1%83%D1%80%D1%81%D0%B8%20(CPU%2C%20GPU%2C%20etc)%22%20style%3D%22text%3Bhtml%3D1%3Balign%3Dcenter%3BverticalAlign%3Dmiddle%3BwhiteSpace%3Dwrap%3Brounded%3D0%3B%22%20vertex%3D%221%22%20parent%3D%221%22%3E%3CmxGeometry%20x%3D%222630%22%20y%3D%22980%22%20width%3D%22120%22%20height%3D%2250%22%20as%3D%22geometry%22%2F%3E%3C%2FmxCell%3E%3C%2Froot%3E%3C%2FmxGraphModel%3E&lt;/span&gt;" style="text;html=1;align=center;verticalAlign=middle;whiteSpace=wrap;rounded=0;" vertex="1" parent="1">
          <mxGeometry x="3085" y="1150" width="70" height="50" as="geometry" />
        </mxCell>
        <mxCell id="9BUm0SveGyXNc4T9sePO-80" style="edgeStyle=orthogonalEdgeStyle;rounded=0;orthogonalLoop=1;jettySize=auto;html=1;exitX=1;exitY=0.5;exitDx=0;exitDy=0;" edge="1" parent="1" source="9BUm0SveGyXNc4T9sePO-74">
          <mxGeometry relative="1" as="geometry">
            <mxPoint x="3390" y="1160" as="targetPoint" />
          </mxGeometry>
        </mxCell>
        <mxCell id="9BUm0SveGyXNc4T9sePO-74" value="повернути вихідні дані ПЗ" style="rounded=0;whiteSpace=wrap;html=1;fillColor=#fff2cc;strokeColor=#d6b656;" vertex="1" parent="1">
          <mxGeometry x="3210" y="1080" width="120" height="60" as="geometry" />
        </mxCell>
        <mxCell id="9BUm0SveGyXNc4T9sePO-78" style="edgeStyle=orthogonalEdgeStyle;rounded=0;orthogonalLoop=1;jettySize=auto;html=1;" edge="1" parent="1" source="9BUm0SveGyXNc4T9sePO-76" target="9BUm0SveGyXNc4T9sePO-74">
          <mxGeometry relative="1" as="geometry" />
        </mxCell>
        <mxCell id="9BUm0SveGyXNc4T9sePO-76" value="ОС" style="text;html=1;align=center;verticalAlign=middle;whiteSpace=wrap;rounded=0;" vertex="1" parent="1">
          <mxGeometry x="3200" y="1200" width="60" height="30" as="geometry" />
        </mxCell>
        <mxCell id="9BUm0SveGyXNc4T9sePO-79" style="edgeStyle=orthogonalEdgeStyle;rounded=0;orthogonalLoop=1;jettySize=auto;html=1;" edge="1" parent="1" source="9BUm0SveGyXNc4T9sePO-77" target="9BUm0SveGyXNc4T9sePO-74">
          <mxGeometry relative="1" as="geometry" />
        </mxCell>
        <mxCell id="9BUm0SveGyXNc4T9sePO-77" value="ПЗ" style="text;html=1;align=center;verticalAlign=middle;whiteSpace=wrap;rounded=0;" vertex="1" parent="1">
          <mxGeometry x="3280" y="1200" width="60" height="30" as="geometry" />
        </mxCell>
        <mxCell id="9BUm0SveGyXNc4T9sePO-83" style="edgeStyle=orthogonalEdgeStyle;rounded=0;orthogonalLoop=1;jettySize=auto;html=1;" edge="1" parent="1" source="9BUm0SveGyXNc4T9sePO-81">
          <mxGeometry relative="1" as="geometry">
            <mxPoint x="3520" y="1190" as="targetPoint" />
          </mxGeometry>
        </mxCell>
        <mxCell id="9BUm0SveGyXNc4T9sePO-81" value="Відобразити вихідні дані&amp;nbsp;" style="rounded=0;whiteSpace=wrap;html=1;fillColor=#fff2cc;strokeColor=#d6b656;" vertex="1" parent="1">
          <mxGeometry x="3360" y="1160" width="120" height="60" as="geometry" />
        </mxCell>
        <mxCell id="9BUm0SveGyXNc4T9sePO-85" style="edgeStyle=orthogonalEdgeStyle;rounded=0;orthogonalLoop=1;jettySize=auto;html=1;" edge="1" parent="1" source="9BUm0SveGyXNc4T9sePO-82" target="9BUm0SveGyXNc4T9sePO-81">
          <mxGeometry relative="1" as="geometry" />
        </mxCell>
        <mxCell id="9BUm0SveGyXNc4T9sePO-82" value="Інтерфейс ПЗ" style="text;html=1;align=center;verticalAlign=middle;whiteSpace=wrap;rounded=0;" vertex="1" parent="1">
          <mxGeometry x="3390" y="1260" width="60" height="30" as="geometry" />
        </mxCell>
        <mxCell id="9BUm0SveGyXNc4T9sePO-84" value="вихідні дані" style="text;html=1;align=center;verticalAlign=middle;whiteSpace=wrap;rounded=0;" vertex="1" parent="1">
          <mxGeometry x="3520" y="1175" width="60" height="30" as="geometry" />
        </mxCell>
        <mxCell id="9BUm0SveGyXNc4T9sePO-93" style="edgeStyle=orthogonalEdgeStyle;rounded=0;orthogonalLoop=1;jettySize=auto;html=1;exitX=1;exitY=0.5;exitDx=0;exitDy=0;entryX=0;entryY=0.5;entryDx=0;entryDy=0;" edge="1" parent="1" source="9BUm0SveGyXNc4T9sePO-87" target="9BUm0SveGyXNc4T9sePO-88">
          <mxGeometry relative="1" as="geometry" />
        </mxCell>
        <mxCell id="9BUm0SveGyXNc4T9sePO-87" value="обробити&amp;nbsp;&lt;div&gt;інструкцію на рівні ПЗ&amp;nbsp;&lt;/div&gt;" style="rounded=0;whiteSpace=wrap;html=1;" vertex="1" parent="1">
          <mxGeometry x="2690" y="1360" width="120" height="60" as="geometry" />
        </mxCell>
        <mxCell id="9BUm0SveGyXNc4T9sePO-94" style="edgeStyle=orthogonalEdgeStyle;rounded=0;orthogonalLoop=1;jettySize=auto;html=1;exitX=1;exitY=0.5;exitDx=0;exitDy=0;entryX=0;entryY=0.5;entryDx=0;entryDy=0;" edge="1" parent="1" source="9BUm0SveGyXNc4T9sePO-88" target="9BUm0SveGyXNc4T9sePO-89">
          <mxGeometry relative="1" as="geometry" />
        </mxCell>
        <mxCell id="9BUm0SveGyXNc4T9sePO-88" value="Перетворити інструкцію, зрозумілу для апаратної частини (CPU)" style="rounded=0;whiteSpace=wrap;html=1;" vertex="1" parent="1">
          <mxGeometry x="2855" y="1420" width="155" height="60" as="geometry" />
        </mxCell>
        <mxCell id="9BUm0SveGyXNc4T9sePO-96" style="edgeStyle=orthogonalEdgeStyle;rounded=0;orthogonalLoop=1;jettySize=auto;html=1;exitX=1;exitY=0.5;exitDx=0;exitDy=0;entryX=0;entryY=0.5;entryDx=0;entryDy=0;" edge="1" parent="1" source="9BUm0SveGyXNc4T9sePO-89" target="9BUm0SveGyXNc4T9sePO-90">
          <mxGeometry relative="1" as="geometry" />
        </mxCell>
        <mxCell id="9BUm0SveGyXNc4T9sePO-89" value="Обробити інструкцію системними ресурсами" style="rounded=0;whiteSpace=wrap;html=1;" vertex="1" parent="1">
          <mxGeometry x="3060" y="1470" width="120" height="60" as="geometry" />
        </mxCell>
        <mxCell id="9BUm0SveGyXNc4T9sePO-97" style="edgeStyle=orthogonalEdgeStyle;rounded=0;orthogonalLoop=1;jettySize=auto;html=1;exitX=1;exitY=0.5;exitDx=0;exitDy=0;" edge="1" parent="1" source="9BUm0SveGyXNc4T9sePO-90">
          <mxGeometry relative="1" as="geometry">
            <mxPoint x="3370" y="1550" as="targetPoint" />
          </mxGeometry>
        </mxCell>
        <mxCell id="9BUm0SveGyXNc4T9sePO-90" value="повернути вихідні дані інструкції ПЗ" style="rounded=0;whiteSpace=wrap;html=1;" vertex="1" parent="1">
          <mxGeometry x="3220" y="1520" width="120" height="60" as="geometry" />
        </mxCell>
        <mxCell id="9BUm0SveGyXNc4T9sePO-99" style="edgeStyle=orthogonalEdgeStyle;rounded=0;orthogonalLoop=1;jettySize=auto;html=1;" edge="1" parent="1" source="9BUm0SveGyXNc4T9sePO-98" target="9BUm0SveGyXNc4T9sePO-87">
          <mxGeometry relative="1" as="geometry">
            <mxPoint x="2500" y="1330" as="targetPoint" />
          </mxGeometry>
        </mxCell>
        <mxCell id="9BUm0SveGyXNc4T9sePO-98" value="вхідні дані" style="text;html=1;align=center;verticalAlign=middle;whiteSpace=wrap;rounded=0;" vertex="1" parent="1">
          <mxGeometry x="2580" y="1375" width="60" height="30" as="geometry" />
        </mxCell>
        <mxCell id="9BUm0SveGyXNc4T9sePO-100" value="вихідні дані" style="text;html=1;align=center;verticalAlign=middle;whiteSpace=wrap;rounded=0;" vertex="1" parent="1">
          <mxGeometry x="3370" y="1535" width="60" height="30" as="geometry" />
        </mxCell>
        <mxCell id="9BUm0SveGyXNc4T9sePO-102" value="ПЗ" style="text;html=1;align=center;verticalAlign=middle;whiteSpace=wrap;rounded=0;" vertex="1" parent="1">
          <mxGeometry x="2720" y="1470" width="60" height="30" as="geometry" />
        </mxCell>
        <mxCell id="9BUm0SveGyXNc4T9sePO-127" style="edgeStyle=orthogonalEdgeStyle;rounded=0;orthogonalLoop=1;jettySize=auto;html=1;entryX=0.75;entryY=1;entryDx=0;entryDy=0;" edge="1" parent="1" source="9BUm0SveGyXNc4T9sePO-104" target="9BUm0SveGyXNc4T9sePO-87">
          <mxGeometry relative="1" as="geometry" />
        </mxCell>
        <mxCell id="9BUm0SveGyXNc4T9sePO-104" value="ОС" style="text;html=1;align=center;verticalAlign=middle;whiteSpace=wrap;rounded=0;" vertex="1" parent="1">
          <mxGeometry x="2770" y="1470" width="60" height="30" as="geometry" />
        </mxCell>
        <mxCell id="9BUm0SveGyXNc4T9sePO-130" style="edgeStyle=orthogonalEdgeStyle;rounded=0;orthogonalLoop=1;jettySize=auto;html=1;" edge="1" parent="1" source="9BUm0SveGyXNc4T9sePO-105" target="9BUm0SveGyXNc4T9sePO-88">
          <mxGeometry relative="1" as="geometry" />
        </mxCell>
        <mxCell id="9BUm0SveGyXNc4T9sePO-105" value="RAM" style="text;html=1;align=center;verticalAlign=middle;whiteSpace=wrap;rounded=0;" vertex="1" parent="1">
          <mxGeometry x="2855" y="1530" width="60" height="30" as="geometry" />
        </mxCell>
        <mxCell id="9BUm0SveGyXNc4T9sePO-129" style="edgeStyle=orthogonalEdgeStyle;rounded=0;orthogonalLoop=1;jettySize=auto;html=1;entryX=0.5;entryY=1;entryDx=0;entryDy=0;" edge="1" parent="1" source="9BUm0SveGyXNc4T9sePO-107" target="9BUm0SveGyXNc4T9sePO-89">
          <mxGeometry relative="1" as="geometry" />
        </mxCell>
        <mxCell id="9BUm0SveGyXNc4T9sePO-107" value="системні ресурси" style="text;html=1;align=center;verticalAlign=middle;whiteSpace=wrap;rounded=0;" vertex="1" parent="1">
          <mxGeometry x="3090" y="1570" width="60" height="30" as="geometry" />
        </mxCell>
        <mxCell id="9BUm0SveGyXNc4T9sePO-108" value="API для взаємодії з ОС" style="text;html=1;align=center;verticalAlign=middle;whiteSpace=wrap;rounded=0;" vertex="1" parent="1">
          <mxGeometry x="2660" y="1260" width="90" height="40" as="geometry" />
        </mxCell>
        <mxCell id="9BUm0SveGyXNc4T9sePO-109" value="&amp;nbsp; Комп&#39;ютерна грамотність не нижче базового рівня" style="text;html=1;align=center;verticalAlign=middle;whiteSpace=wrap;rounded=0;" vertex="1" parent="1">
          <mxGeometry x="2780" y="1260" width="110" height="40" as="geometry" />
        </mxCell>
        <mxCell id="9BUm0SveGyXNc4T9sePO-111" style="edgeStyle=orthogonalEdgeStyle;rounded=0;orthogonalLoop=1;jettySize=auto;html=1;entryX=0.404;entryY=0.038;entryDx=0;entryDy=0;entryPerimeter=0;" edge="1" parent="1" source="9BUm0SveGyXNc4T9sePO-108" target="9BUm0SveGyXNc4T9sePO-87">
          <mxGeometry relative="1" as="geometry" />
        </mxCell>
        <mxCell id="9BUm0SveGyXNc4T9sePO-125" style="edgeStyle=orthogonalEdgeStyle;rounded=0;orthogonalLoop=1;jettySize=auto;html=1;entryX=0.25;entryY=1;entryDx=0;entryDy=0;" edge="1" parent="1" source="9BUm0SveGyXNc4T9sePO-112" target="9BUm0SveGyXNc4T9sePO-87">
          <mxGeometry relative="1" as="geometry" />
        </mxCell>
        <mxCell id="9BUm0SveGyXNc4T9sePO-112" value="Людина" style="text;html=1;align=center;verticalAlign=middle;whiteSpace=wrap;rounded=0;" vertex="1" parent="1">
          <mxGeometry x="2660" y="1470" width="60" height="30" as="geometry" />
        </mxCell>
        <mxCell id="9BUm0SveGyXNc4T9sePO-113" value="hardware (CPU, RAM, storage devices, Network Interface Card, etc)" style="text;html=1;align=center;verticalAlign=middle;whiteSpace=wrap;rounded=0;" vertex="1" parent="1">
          <mxGeometry x="2180" y="830" width="80" height="80" as="geometry" />
        </mxCell>
        <mxCell id="9BUm0SveGyXNc4T9sePO-114" style="edgeStyle=orthogonalEdgeStyle;rounded=0;orthogonalLoop=1;jettySize=auto;html=1;entryX=0.67;entryY=1.029;entryDx=0;entryDy=0;entryPerimeter=0;" edge="1" parent="1" source="9BUm0SveGyXNc4T9sePO-113" target="9BUm0SveGyXNc4T9sePO-26">
          <mxGeometry relative="1" as="geometry" />
        </mxCell>
        <mxCell id="9BUm0SveGyXNc4T9sePO-115" value="&lt;br&gt;&lt;span style=&quot;background-color: rgb(248, 250, 254);&quot;&gt;&lt;span style=&quot;color: rgb(0, 0, 0); font-family: Helvetica; font-size: 12px; font-style: normal; font-variant-ligatures: normal; font-variant-caps: normal; font-weight: 400; letter-spacing: normal; orphans: 2; text-align: center; text-indent: 0px; text-transform: none; widows: 2; word-spacing: 0px; -webkit-text-stroke-width: 0px; white-space: normal; text-decoration-thickness: initial; text-decoration-style: initial; text-decoration-color: initial; float: none; display: inline !important;&quot;&gt;Перетворити інструкцію, зрозумілу для апаратної частини (CPU)&lt;/span&gt;&lt;br&gt;&lt;/span&gt;" style="text;html=1;align=center;verticalAlign=middle;whiteSpace=wrap;rounded=0;fillColor=#dae8fc;strokeColor=#6c8ebf;" vertex="1" parent="1">
          <mxGeometry x="2095" y="580" width="170" height="80" as="geometry" />
        </mxCell>
        <mxCell id="9BUm0SveGyXNc4T9sePO-119" value="&lt;br&gt;&lt;span style=&quot;color: rgb(0, 0, 0); font-family: Helvetica; font-size: 12px; font-style: normal; font-variant-ligatures: normal; font-variant-caps: normal; font-weight: 400; letter-spacing: normal; orphans: 2; text-align: center; text-indent: 0px; text-transform: none; widows: 2; word-spacing: 0px; -webkit-text-stroke-width: 0px; white-space: normal; background-color: rgb(251, 251, 251); text-decoration-thickness: initial; text-decoration-style: initial; text-decoration-color: initial; display: inline !important; float: none;&quot;&gt;Обробити інструкцію&amp;nbsp;&lt;/span&gt;&lt;div&gt;&lt;span style=&quot;color: rgb(0, 0, 0); font-family: Helvetica; font-size: 12px; font-style: normal; font-variant-ligatures: normal; font-variant-caps: normal; font-weight: 400; letter-spacing: normal; orphans: 2; text-align: center; text-indent: 0px; text-transform: none; widows: 2; word-spacing: 0px; -webkit-text-stroke-width: 0px; white-space: normal; background-color: rgb(251, 251, 251); text-decoration-thickness: initial; text-decoration-style: initial; text-decoration-color: initial; display: inline !important; float: none;&quot;&gt;системними ресурсами&lt;/span&gt;&lt;br&gt;&lt;br&gt;&lt;/div&gt;" style="rounded=0;whiteSpace=wrap;html=1;fillColor=#d5e8d4;strokeColor=#82b366;" vertex="1" parent="1">
          <mxGeometry x="2630" y="710" width="190" height="100" as="geometry" />
        </mxCell>
        <mxCell id="9BUm0SveGyXNc4T9sePO-121" value="&#xa;&lt;span style=&quot;color: rgb(0, 0, 0); font-family: Helvetica; font-size: 12px; font-style: normal; font-variant-ligatures: normal; font-variant-caps: normal; font-weight: 400; letter-spacing: normal; orphans: 2; text-align: center; text-indent: 0px; text-transform: none; widows: 2; word-spacing: 0px; -webkit-text-stroke-width: 0px; white-space: normal; background-color: rgb(251, 251, 251); text-decoration-thickness: initial; text-decoration-style: initial; text-decoration-color: initial; display: inline !important; float: none;&quot;&gt;повернути вихідні дані інструкції ПЗ&lt;/span&gt;&#xa;&#xa;" style="rounded=0;whiteSpace=wrap;html=1;fillColor=#fff2cc;strokeColor=#d6b656;" vertex="1" parent="1">
          <mxGeometry x="3270" y="950" width="170" height="80" as="geometry" />
        </mxCell>
        <mxCell id="9BUm0SveGyXNc4T9sePO-122" value="обробити&amp;nbsp;&lt;div&gt;інструкцію на рівні ПЗ&amp;nbsp;&lt;/div&gt;" style="rounded=0;whiteSpace=wrap;html=1;fillColor=#e1d5e7;strokeColor=#9673a6;" vertex="1" parent="1">
          <mxGeometry x="1690" y="369.65" width="140" height="80.35" as="geometry" />
        </mxCell>
        <mxCell id="9BUm0SveGyXNc4T9sePO-123" style="edgeStyle=orthogonalEdgeStyle;rounded=0;orthogonalLoop=1;jettySize=auto;html=1;entryX=0.688;entryY=0;entryDx=0;entryDy=0;entryPerimeter=0;" edge="1" parent="1" source="9BUm0SveGyXNc4T9sePO-109" target="9BUm0SveGyXNc4T9sePO-87">
          <mxGeometry relative="1" as="geometry" />
        </mxCell>
        <mxCell id="9BUm0SveGyXNc4T9sePO-126" style="edgeStyle=orthogonalEdgeStyle;rounded=0;orthogonalLoop=1;jettySize=auto;html=1;" edge="1" parent="1" source="9BUm0SveGyXNc4T9sePO-102" target="9BUm0SveGyXNc4T9sePO-87">
          <mxGeometry relative="1" as="geometry" />
        </mxCell>
        <mxCell id="9BUm0SveGyXNc4T9sePO-128" value="ОС" style="text;html=1;align=center;verticalAlign=middle;whiteSpace=wrap;rounded=0;" vertex="1" parent="1">
          <mxGeometry x="2930" y="1535" width="60" height="30" as="geometry" />
        </mxCell>
        <mxCell id="9BUm0SveGyXNc4T9sePO-131" style="edgeStyle=orthogonalEdgeStyle;rounded=0;orthogonalLoop=1;jettySize=auto;html=1;" edge="1" parent="1" source="9BUm0SveGyXNc4T9sePO-128">
          <mxGeometry relative="1" as="geometry">
            <mxPoint x="2950" y="1480" as="targetPoint" />
            <Array as="points">
              <mxPoint x="2960" y="1508" />
              <mxPoint x="2950" y="1508" />
              <mxPoint x="2950" y="1480" />
            </Array>
          </mxGeometry>
        </mxCell>
        <mxCell id="9BUm0SveGyXNc4T9sePO-133" style="edgeStyle=orthogonalEdgeStyle;rounded=0;orthogonalLoop=1;jettySize=auto;html=1;" edge="1" parent="1" source="9BUm0SveGyXNc4T9sePO-132" target="9BUm0SveGyXNc4T9sePO-90">
          <mxGeometry relative="1" as="geometry" />
        </mxCell>
        <mxCell id="9BUm0SveGyXNc4T9sePO-132" value="ОС" style="text;html=1;align=center;verticalAlign=middle;whiteSpace=wrap;rounded=0;" vertex="1" parent="1">
          <mxGeometry x="3210" y="1620" width="60" height="30" as="geometry" />
        </mxCell>
        <mxCell id="9BUm0SveGyXNc4T9sePO-134" value="ПЗ" style="text;html=1;align=center;verticalAlign=middle;whiteSpace=wrap;rounded=0;" vertex="1" parent="1">
          <mxGeometry x="3280" y="1620" width="60" height="30" as="geometry" />
        </mxCell>
        <mxCell id="9BUm0SveGyXNc4T9sePO-135" style="edgeStyle=orthogonalEdgeStyle;rounded=0;orthogonalLoop=1;jettySize=auto;html=1;entryX=0.594;entryY=0.963;entryDx=0;entryDy=0;entryPerimeter=0;" edge="1" parent="1" source="9BUm0SveGyXNc4T9sePO-134" target="9BUm0SveGyXNc4T9sePO-90">
          <mxGeometry relative="1" as="geometry" />
        </mxCell>
        <mxCell id="9BUm0SveGyXNc4T9sePO-136" value="системний ресурс (CPU, GPU, etc)" style="text;html=1;align=center;verticalAlign=middle;whiteSpace=wrap;rounded=0;" vertex="1" parent="1">
          <mxGeometry x="2825" y="1040" width="120" height="50" as="geometry" />
        </mxCell>
        <mxCell id="9BUm0SveGyXNc4T9sePO-137" value="&#xa;&lt;span style=&quot;color: rgb(0, 0, 0); font-family: Helvetica; font-size: 12px; font-style: normal; font-variant-ligatures: normal; font-variant-caps: normal; font-weight: 400; letter-spacing: normal; orphans: 2; text-align: center; text-indent: 0px; text-transform: none; widows: 2; word-spacing: 0px; -webkit-text-stroke-width: 0px; white-space: normal; background-color: rgb(251, 251, 251); text-decoration-thickness: initial; text-decoration-style: initial; text-decoration-color: initial; display: inline !important; float: none;&quot;&gt;використовувати ноутбук&lt;/span&gt;&#xa;&#xa;" style="rounded=0;whiteSpace=wrap;html=1;fillColor=#dae8fc;strokeColor=#6c8ebf;" vertex="1" parent="1">
          <mxGeometry x="880" y="190" width="120" height="60" as="geometry" />
        </mxCell>
        <mxCell id="9BUm0SveGyXNc4T9sePO-138" style="edgeStyle=orthogonalEdgeStyle;rounded=0;orthogonalLoop=1;jettySize=auto;html=1;entryX=0.15;entryY=0.967;entryDx=0;entryDy=0;entryPerimeter=0;" edge="1" parent="1" source="xynN1DV7xF-PApxHEvJ0-94" target="xynN1DV7xF-PApxHEvJ0-89">
          <mxGeometry relative="1" as="geometry" />
        </mxCell>
        <mxCell id="9BUm0SveGyXNc4T9sePO-142" style="edgeStyle=orthogonalEdgeStyle;rounded=0;orthogonalLoop=1;jettySize=auto;html=1;" edge="1" parent="1" source="9BUm0SveGyXNc4T9sePO-141" target="xynN1DV7xF-PApxHEvJ0-90">
          <mxGeometry relative="1" as="geometry" />
        </mxCell>
        <mxCell id="9BUm0SveGyXNc4T9sePO-141" value="ОС" style="text;html=1;align=center;verticalAlign=middle;whiteSpace=wrap;rounded=0;" vertex="1" parent="1">
          <mxGeometry x="980" y="440" width="60" height="30" as="geometry" />
        </mxCell>
        <mxCell id="9BUm0SveGyXNc4T9sePO-144" style="edgeStyle=orthogonalEdgeStyle;rounded=0;orthogonalLoop=1;jettySize=auto;html=1;" edge="1" parent="1" source="9BUm0SveGyXNc4T9sePO-143" target="xynN1DV7xF-PApxHEvJ0-90">
          <mxGeometry relative="1" as="geometry" />
        </mxCell>
        <mxCell id="9BUm0SveGyXNc4T9sePO-143" value="користувач" style="text;html=1;align=center;verticalAlign=middle;whiteSpace=wrap;rounded=0;" vertex="1" parent="1">
          <mxGeometry x="1060" y="440" width="60" height="30" as="geometry" />
        </mxCell>
        <mxCell id="9BUm0SveGyXNc4T9sePO-146" style="edgeStyle=orthogonalEdgeStyle;rounded=0;orthogonalLoop=1;jettySize=auto;html=1;" edge="1" parent="1" source="9BUm0SveGyXNc4T9sePO-145" target="xynN1DV7xF-PApxHEvJ0-89">
          <mxGeometry relative="1" as="geometry">
            <mxPoint x="830" y="360" as="targetPoint" />
          </mxGeometry>
        </mxCell>
        <mxCell id="9BUm0SveGyXNc4T9sePO-145" value="firmware (вбудоване ПЗ)" style="text;html=1;align=center;verticalAlign=middle;whiteSpace=wrap;rounded=0;" vertex="1" parent="1">
          <mxGeometry x="810" y="480" width="80" height="60" as="geometry" />
        </mxCell>
        <mxCell id="9BUm0SveGyXNc4T9sePO-147" value="BIOS/UEFI" style="text;html=1;align=center;verticalAlign=middle;whiteSpace=wrap;rounded=0;" vertex="1" parent="1">
          <mxGeometry x="620" y="900" width="60" height="30" as="geometry" />
        </mxCell>
        <mxCell id="9BUm0SveGyXNc4T9sePO-148" style="edgeStyle=orthogonalEdgeStyle;rounded=0;orthogonalLoop=1;jettySize=auto;html=1;entryX=0.336;entryY=0.978;entryDx=0;entryDy=0;entryPerimeter=0;" edge="1" parent="1" source="9BUm0SveGyXNc4T9sePO-147" target="xynN1DV7xF-PApxHEvJ0-28">
          <mxGeometry relative="1" as="geometry" />
        </mxCell>
        <mxCell id="9BUm0SveGyXNc4T9sePO-152" value="налаштований ноутбук з ОС для роботи" style="text;html=1;align=center;verticalAlign=middle;whiteSpace=wrap;rounded=0;" vertex="1" parent="1">
          <mxGeometry x="1650" y="945" width="120" height="45" as="geometry" />
        </mxCell>
        <mxCell id="9BUm0SveGyXNc4T9sePO-153" value="завершити роботу з ОС" style="rounded=0;whiteSpace=wrap;html=1;fillColor=#dae8fc;strokeColor=#6c8ebf;" vertex="1" parent="1">
          <mxGeometry x="1185" y="405" width="120" height="60" as="geometry" />
        </mxCell>
        <mxCell id="9BUm0SveGyXNc4T9sePO-154" value="ОС" style="text;html=1;align=center;verticalAlign=middle;whiteSpace=wrap;rounded=0;" vertex="1" parent="1">
          <mxGeometry x="1170" y="495" width="60" height="30" as="geometry" />
        </mxCell>
        <mxCell id="9BUm0SveGyXNc4T9sePO-158" style="edgeStyle=orthogonalEdgeStyle;rounded=0;orthogonalLoop=1;jettySize=auto;html=1;exitX=0.5;exitY=0;exitDx=0;exitDy=0;entryX=0.75;entryY=1;entryDx=0;entryDy=0;" edge="1" parent="1" source="9BUm0SveGyXNc4T9sePO-155" target="9BUm0SveGyXNc4T9sePO-153">
          <mxGeometry relative="1" as="geometry" />
        </mxCell>
        <mxCell id="9BUm0SveGyXNc4T9sePO-155" value="користувач" style="text;html=1;align=center;verticalAlign=middle;whiteSpace=wrap;rounded=0;" vertex="1" parent="1">
          <mxGeometry x="1245" y="510" width="60" height="30" as="geometry" />
        </mxCell>
        <mxCell id="9BUm0SveGyXNc4T9sePO-157" style="edgeStyle=orthogonalEdgeStyle;rounded=0;orthogonalLoop=1;jettySize=auto;html=1;exitX=0.5;exitY=0;exitDx=0;exitDy=0;entryX=0.118;entryY=0.967;entryDx=0;entryDy=0;entryPerimeter=0;" edge="1" parent="1" source="9BUm0SveGyXNc4T9sePO-154" target="9BUm0SveGyXNc4T9sePO-153">
          <mxGeometry relative="1" as="geometry" />
        </mxCell>
      </root>
    </mxGraphModel>
  </diagram>
</mxfile>
